<svg xmlns="http://www.w3.org/2000/svg" width="470" height="78" viewBox="0 0 470 78" role="img" aria-labelledby="title desc">
  <title id="title">Agent-Compose</title>
  <desc id="desc">Agent-Compose full logo adapted for dark blue website surfaces</desc>
  <g transform="translate(2 5)">
    <path d="M4 14h22c9 0 10 14 20 14h12" fill="none" stroke="#72c9ff" stroke-width="7" stroke-linecap="round"/>
    <path d="M4 34h54" fill="none" stroke="#b8c4bc" stroke-opacity=".86" stroke-width="7" stroke-linecap="round"/>
    <path d="M4 54h22c9 0 10-14 20-14h12" fill="none" stroke="#72c9ff" stroke-opacity=".72" stroke-width="7" stroke-linecap="round"/>
    <circle cx="5" cy="14" r="5" fill="#e9f1ec"/>
    <circle cx="5" cy="34" r="5" fill="#e9f1ec"/>
    <circle cx="5" cy="54" r="5" fill="#e9f1ec"/>
    <circle cx="58" cy="34" r="6" fill="#72c9ff" stroke="#e9f1ec" stroke-width="3"/>
    <rect x="70" y="2" width="58" height="64" rx="17" fill="#0b0d0c" stroke="#e9f1ec" stroke-opacity=".8" stroke-width="3"/>
    <path d="M90 23l13 12-13 12" fill="none" stroke="#e9f1ec" stroke-width="8" stroke-linecap="round" stroke-linejoin="round"/>
    <path d="M111 54h9" fill="none" stroke="#72c9ff" stroke-width="8" stroke-linecap="round"/>
  </g>
  <text x="154" y="50" fill="#e9f1ec" font-family="Inter, ui-sans-serif, system-ui, -apple-system, BlinkMacSystemFont, 'Segoe UI', sans-serif" font-size="38" font-weight="850" letter-spacing="-1.4">Agent</text>
  <path d="M266 38h12" fill="none" stroke="#72c9ff" stroke-width="4" stroke-linecap="round"/>
  <text x="286" y="50" fill="#72c9ff" font-family="Inter, ui-sans-serif, system-ui, -apple-system, BlinkMacSystemFont, 'Segoe UI', sans-serif" font-size="38" font-weight="850" letter-spacing="-1.4">Compose</text>
</svg>
